<svg clip-rule="evenodd" fill-rule="evenodd" stroke-linecap="round" stroke-linejoin="round" stroke-miterlimit="1.5" viewBox="0 0 82 11" xmlns="http://www.w3.org/2000/svg"><ellipse cx="67.492" cy="5.374" fill="#84d651" rx="5.062" ry="4.899" stroke="#000" stroke-opacity=".44" stroke-width=".95"/><path d="m65.734 5.236-.597.699 2.185 1.568 2.525-3.705-.8-.554-1.921 2.927z" fill="#fff"/><g fill-rule="nonzero"><path d="m4.452 2.833v6.744h-2.052v-6.744h-2.4v-1.752h6.852v1.752z"/><path d="m16.284 5.293c0 .672-.116 1.286-.348 1.842s-.554 1.032-.966 1.428-.902.702-1.47.918-1.184.324-1.848.324-1.278-.108-1.842-.324-1.052-.522-1.464-.918-.734-.872-.966-1.428-.348-1.17-.348-1.842c0-.68.116-1.294.348-1.842s.554-1.014.966-1.398.9-.68 1.464-.888 1.178-.312 1.842-.312 1.28.104 1.848.312 1.058.504 1.47.888.734.85.966 1.398.348 1.162.348 1.842zm-2.196 0c0-.368-.06-.712-.18-1.032s-.286-.594-.498-.822-.468-.408-.768-.54-.63-.198-.99-.198-.688.066-.984.198-.552.312-.768.54-.382.502-.498.822-.174.664-.174 1.032c0 .384.06.738.18 1.062s.286.602.498.834.466.414.762.546.624.198.984.198.688-.066.984-.198.552-.314.768-.546.384-.51.504-.834.18-.678.18-1.062z"/><path d="m25.572 5.305c0 .744-.138 1.386-.414 1.926s-.64.984-1.092 1.332-.962.604-1.53.768-1.144.246-1.728.246h-3.168v-8.496h3.072c.6 0 1.192.07 1.776.21s1.104.372 1.56.696.824.758 1.104 1.302.42 1.216.42 2.016zm-2.136 0c0-.48-.078-.878-.234-1.194s-.364-.568-.624-.756-.556-.322-.888-.402-.674-.12-1.026-.12h-1.02v4.968h.972c.368 0 .722-.042 1.062-.126s.64-.222.9-.414.468-.448.624-.768.234-.716.234-1.188z"/><path d="m35.784 5.293c0 .672-.116 1.286-.348 1.842s-.554 1.032-.966 1.428-.902.702-1.47.918-1.184.324-1.848.324-1.278-.108-1.842-.324-1.052-.522-1.464-.918-.734-.872-.966-1.428-.348-1.17-.348-1.842c0-.68.116-1.294.348-1.842s.554-1.014.966-1.398.9-.68 1.464-.888 1.178-.312 1.842-.312 1.28.104 1.848.312 1.058.504 1.47.888.734.85.966 1.398.348 1.162.348 1.842zm-2.196 0c0-.368-.06-.712-.18-1.032s-.286-.594-.498-.822-.468-.408-.768-.54-.63-.198-.99-.198-.688.066-.984.198-.552.312-.768.54-.382.502-.498.822-.174.664-.174 1.032c0 .384.06.738.18 1.062s.286.602.498.834.466.414.762.546.624.198.984.198.688-.066.984-.198.552-.314.768-.546.384-.51.504-.834.18-.678.18-1.062z"/><path d="m41.592 8.113h.012l2.844-7.032h1.32v8.496h-.864v-7.38h-.024l-3.072 7.38h-.456l-3.072-7.38h-.024v7.38h-.864v-8.496h1.32z" fill="#545454"/><path d="m47.964 9.577h-.948l3.672-8.496h.84l3.648 8.496h-.96l-.936-2.232h-4.392zm1.248-3.024h3.744l-1.872-4.512z" fill="#545454"/><path d="m58.428 9.577h-.864v-7.728h-2.844v-.768h6.552v.768h-2.844z" fill="#545454"/><path d="m75.527 9.671h-.864v-8.496h2.736c.416 0 .802.04 1.158.12s.664.21.924.39.462.414.606.702.216.64.216 1.056c0 .312-.056.596-.168.852s-.264.478-.456.666-.42.338-.684.45-.552.184-.864.216l3.204 4.044h-1.056l-3.072-3.972h-1.68zm0-4.716h1.74c.696 0 1.232-.126 1.608-.378s.564-.63.564-1.134c0-.28-.052-.516-.156-.708s-.248-.348-.432-.468-.408-.208-.672-.264-.556-.084-.876-.084h-1.776z" fill="#545454"/></g></svg>