<svg viewBox="0 0 326 38" xmlns="http://www.w3.org/2000/svg" fill-rule="evenodd" clip-rule="evenodd" stroke-linejoin="round" stroke-miterlimit="2"><circle cx="323.599" cy="157.604" r="15.761" fill="#84d651" transform="matrix(1.06236 0 0 1.0149 -67.949 -141.302)"/><path d="M269.29 18.22l-2.219 2.564 8.125 5.76 9.394-13.606-2.974-2.035-7.146 10.75-5.18-3.433z" fill="#fff"/><g><path d="M18.55 8.25v28.1H10V8.25H0V.95h28.55v7.3h-10zM67.85 18.5c0 2.8-.5 5.35-1.45 7.65a17.1 17.1 0 01-4 5.95 18.57 18.57 0 01-6.15 3.85c-2.35.9-4.95 1.35-7.7 1.35s-5.3-.45-7.65-1.35c-2.35-.9-4.4-2.2-6.1-3.85-1.75-1.65-3.1-3.6-4.05-5.95-.95-2.3-1.45-4.85-1.45-7.65 0-2.85.5-5.4 1.45-7.7.95-2.25 2.3-4.2 4.05-5.8 1.7-1.6 3.75-2.85 6.1-3.7C43.25.45 45.8 0 48.55 0s5.35.45 7.7 1.3c2.35.85 4.4 2.1 6.15 3.7 1.7 1.6 3.05 3.55 4 5.8.95 2.3 1.45 4.85 1.45 7.7zm-9.15 0c0-1.55-.25-2.95-.75-4.3-.5-1.35-1.2-2.5-2.05-3.45a9.75 9.75 0 00-3.2-2.25c-1.25-.55-2.65-.8-4.15-.8-1.5 0-2.85.25-4.1.8a9.75 9.75 0 00-3.2 2.25c-.9.95-1.6 2.1-2.05 3.45-.5 1.35-.75 2.75-.75 4.3 0 1.6.25 3.05.75 4.4.5 1.35 1.2 2.55 2.1 3.5.85.95 1.9 1.7 3.15 2.25 1.25.6 2.6.85 4.1.85 1.5 0 2.85-.25 4.1-.85a9.75 9.75 0 003.2-2.25c.9-.95 1.6-2.15 2.1-3.5s.75-2.8.75-4.4zM106.55 18.55c0 3.1-.55 5.75-1.7 8s-2.7 4.1-4.55 5.55c-1.9 1.45-4.05 2.55-6.4 3.2-2.35.7-4.75 1.05-7.2 1.05H73.5V.95h12.8c2.5 0 4.95.3 7.4.85 2.45.6 4.6 1.55 6.5 2.9 1.9 1.35 3.45 3.2 4.6 5.45 1.15 2.25 1.75 5.05 1.75 8.4zm-8.9 0c0-2-.3-3.65-.95-5a8.985 8.985 0 00-2.6-3.15c-1.1-.75-2.35-1.3-3.7-1.65-1.4-.35-2.85-.5-4.3-.5h-4.25v20.7h4.05c1.55 0 3-.2 4.45-.55 1.4-.35 2.65-.9 3.75-1.7 1.05-.8 1.95-1.85 2.6-3.2.65-1.35.95-3 .95-4.95zM149.1 18.5c0 2.8-.5 5.35-1.45 7.65a17.1 17.1 0 01-4 5.95 18.57 18.57 0 01-6.15 3.85c-2.35.9-4.95 1.35-7.7 1.35s-5.3-.45-7.65-1.35c-2.35-.9-4.4-2.2-6.1-3.85-1.75-1.65-3.1-3.6-4.05-5.95-.95-2.3-1.45-4.85-1.45-7.65 0-2.85.5-5.4 1.45-7.7.95-2.25 2.3-4.2 4.05-5.8 1.7-1.6 3.75-2.85 6.1-3.7 2.35-.85 4.9-1.3 7.65-1.3s5.35.45 7.7 1.3c2.35.85 4.4 2.1 6.15 3.7 1.7 1.6 3.05 3.55 4 5.8.95 2.3 1.45 4.85 1.45 7.7zm-9.15 0c0-1.55-.25-2.95-.75-4.3-.5-1.35-1.2-2.5-2.05-3.45a9.75 9.75 0 00-3.2-2.25c-1.25-.55-2.65-.8-4.15-.8-1.5 0-2.85.25-4.1.8a9.75 9.75 0 00-3.2 2.25c-.9.95-1.6 2.1-2.05 3.45-.5 1.35-.75 2.75-.75 4.3 0 1.6.25 3.05.75 4.4.5 1.35 1.2 2.55 2.1 3.5.85.95 1.9 1.7 3.15 2.25 1.25.6 2.6.85 4.1.85 1.5 0 2.85-.25 4.1-.85a9.75 9.75 0 003.2-2.25c.9-.95 1.6-2.15 2.1-3.5s.75-2.8.75-4.4z" fill-rule="nonzero"/><path d="M173.3 30.25h.05L185.2.95h5.5v35.4h-3.6V5.6h-.1l-12.8 30.75h-1.9L159.5 5.6h-.1v30.75h-3.6V.95h5.5l12 29.3zM199.85 36.35h-3.95L211.2.95h3.5l15.2 35.4h-4l-3.9-9.3h-18.3l-3.85 9.3zm5.2-12.6h15.6l-7.8-18.8-7.8 18.8zM243.45 36.35h-3.6V4.15H228V.95h27.3v3.2h-11.85v32.2zM294.1 18.65c0 2.7-.45 5.2-1.4 7.45a18.89 18.89 0 01-3.85 5.85c-1.65 1.65-3.65 2.95-5.85 3.9-2.25.95-4.7 1.4-7.35 1.4-2.65 0-5.05-.45-7.3-1.4s-4.2-2.25-5.85-3.9c-1.65-1.65-2.95-3.6-3.9-5.85-.95-2.25-1.4-4.75-1.4-7.45s.45-5.2 1.4-7.45 2.25-4.25 3.9-5.9c1.65-1.65 3.6-2.9 5.85-3.85 2.25-.95 4.65-1.4 7.3-1.4 2.65 0 5.1.45 7.35 1.4 2.2.95 4.2 2.2 5.85 3.85 1.6 1.65 2.9 3.65 3.85 5.9.95 2.25 1.4 4.75 1.4 7.45zm-3.8 0c0-2.05-.35-4.05-1-5.9-.65-1.85-1.65-3.5-2.9-4.95-1.25-1.4-2.8-2.5-4.6-3.35-1.85-.85-3.9-1.25-6.15-1.25-2.25 0-4.3.4-6.1 1.25-1.85.85-3.4 1.95-4.65 3.35-1.25 1.45-2.25 3.1-2.9 4.95-.65 1.85-1 3.85-1 5.9 0 2.05.35 4.05 1 5.9.65 1.85 1.65 3.5 2.9 4.9 1.25 1.4 2.8 2.5 4.65 3.35 1.8.85 3.85 1.25 6.1 1.25 2.25 0 4.3-.4 6.15-1.25 1.8-.85 3.35-1.95 4.6-3.35 1.25-1.4 2.25-3.05 2.9-4.9.65-1.85 1-3.85 1-5.9zM305.2 36.35h-3.6V.95H312c1.75 0 3.35.15 4.85.5 1.45.35 2.75.85 3.85 1.6 1.05.75 1.9 1.75 2.5 2.95.6 1.2.9 2.65.9 4.4 0 1.3-.25 2.5-.7 3.55-.45 1.05-1.1 2-1.9 2.75-.8.8-1.75 1.45-2.85 1.9-1.1.45-2.3.75-3.6.9l10.35 16.85H321l-9.8-16.55h-6v16.55zm0-19.65h6.25c2.9 0 5.15-.55 6.7-1.6 1.55-1.05 2.35-2.6 2.35-4.7 0-1.15-.2-2.15-.65-2.95-.45-.8-1.05-1.45-1.8-1.95s-1.7-.85-2.8-1.1c-1.1-.25-2.3-.35-3.65-.35h-6.4V16.7z" fill="#545454" fill-rule="nonzero"/></g></svg>